<svg xmlns="http://www.w3.org/2000/svg" width="1024" height="1024" viewBox="0 0 270.933 270.933"><path fill="#f5d0d0" d="M101.839 248.755c.402-.061.997-.06 1.323.004.325.062-.004.112-.732.11-.727-.002-.994-.053-.591-.114zm6.085 0c.402-.061.998-.06 1.323.004.325.062-.004.112-.731.11-.728-.002-.994-.053-.592-.114zm7.554-.256c.19-.076.419-.067.507.021.088.088-.069.15-.348.139-.308-.013-.37-.075-.16-.16zM94.046 235.27c.191-.076.42-.067.507.02.088.089-.068.151-.347.14-.308-.013-.37-.076-.16-.16zm6.73-.002c.255-.067.672-.067.927 0 .254.066.046.121-.463.121-.51 0-.718-.055-.463-.121zm-52.487-3.191c-.329-.42-.32-.43.1-.1.255.2.463.408.463.463 0 .218-.217.078-.563-.363zm1.601-11.642-.64-.727.727.641c.68.6.849.814.641.814-.047 0-.375-.328-.728-.728zm-6.78-14.883c0-.8.05-1.127.11-.727.061.4.061 1.055 0 1.455-.06.4-.11.073-.11-.728zm98.19-11.442-.504-.595.595.504c.56.474.716.686.504.686-.05 0-.318-.267-.595-.595zm-90.86-6.119c0-.055.209-.263.464-.463.42-.33.429-.32.1.1-.346.44-.563.58-.563.363zm5.313-5.875c.013-.309.076-.371.16-.16.077.19.067.42-.02.507-.089.088-.151-.068-.14-.347zm-28.874-49.257-.912-.992.992.912c.923.848 1.114 1.072.912 1.072-.045 0-.491-.446-.992-.992zm-5.458-15.147c0-.946.048-1.333.107-.86a8.421 8.421 0 0 1 0 1.72c-.059.473-.107.086-.107-.86zm.974-48.816c1.23-1.237 2.297-2.249 2.37-2.249.072 0-.875 1.012-2.106 2.25-1.23 1.236-2.296 2.248-2.37 2.248-.072 0 .875-1.012 2.106-2.249zM98.81 56.942c.19-.077.419-.067.507.02.088.089-.068.151-.347.14-.309-.013-.371-.076-.16-.16zm4.217-.26c.182-.073.48-.073.661 0 .182.074.033.134-.33.134-.364 0-.513-.06-.331-.133zm10.6-.005c.19-.076.419-.067.507.021.088.088-.069.15-.348.14-.308-.014-.37-.076-.16-.16zm-15.082-19.05c.191-.076.42-.067.507.021.088.088-.068.15-.347.14-.308-.014-.37-.076-.16-.16zm6.072-.27c.33-.064.806-.062 1.059.005.252.066-.017.118-.599.115-.582-.003-.789-.057-.46-.12zm6.615 0c.329-.064.805-.062 1.058.005.253.066-.016.118-.598.115-.582-.003-.79-.057-.46-.12z"/><path fill="#f0afaf" d="M100.253 248.761c.257-.067.614-.063.793.01.18.073-.031.127-.468.122-.436-.005-.583-.065-.325-.132zm9.79 0c.257-.067.614-.063.793.01.179.073-.032.127-.468.122-.437-.005-.583-.065-.326-.132zm6.228-.262c.191-.076.42-.067.507.021.088.088-.068.15-.347.139-.308-.013-.37-.075-.16-.16zm-20.257-13.244a29.41 29.41 0 0 1 3.043 0c.837.053.152.096-1.521.096-1.674 0-2.359-.043-1.522-.096zm62.905-.995c.493-.51.957-.926 1.03-.926.072 0-.272.417-.766.926-.493.51-.957.926-1.03.926-.072 0 .272-.417.766-.926zm-122.98-26.194c.006-.436.065-.583.132-.325.067.257.063.614-.01.793-.072.18-.127-.031-.122-.468zm-23.349-60.92-.912-.992.992.912c.924.848 1.114 1.072.912 1.072-.044 0-.49-.446-.992-.992zm156.983-2.102c.258-.067.615-.062.794.01.18.073-.031.128-.468.122-.437-.005-.583-.064-.326-.131zM104.352 56.67c.329-.063.805-.061 1.058.005s-.016.118-.598.115c-.583-.003-.79-.057-.46-.12zm8.48.006c.19-.076.419-.067.507.021.088.088-.069.15-.347.14-.309-.014-.371-.076-.16-.16zm-9.939-19.316c.255-.067.672-.067.926 0 .255.067.047.121-.463.121-.509 0-.717-.054-.463-.121zm9.939.002c.19-.077.419-.067.507.02.088.088-.069.151-.347.14-.309-.013-.371-.076-.16-.16z"/><path fill="#ea8e8e" d="M99.338 248.764c.191-.077.42-.067.507.02.088.089-.068.151-.347.14-.308-.013-.371-.076-.16-.16zm11.89.005c.182-.074.48-.074.661 0 .182.073.033.133-.33.133-.364 0-.513-.06-.331-.133zM45.922 229.96l-.642-.727.728.64c.68.6.849.815.641.815-.047 0-.374-.328-.727-.728zm-10.014-20.857c.013-.309.076-.371.16-.16.077.19.067.419-.02.507-.088.088-.151-.069-.14-.347zm0-2.117c.013-.308.076-.371.16-.16.077.191.067.42-.02.507-.088.088-.151-.068-.14-.347zm16.913-21.377c0-.055.208-.263.463-.463.42-.329.429-.32.1.1-.346.44-.563.58-.563.363zm1.273-5.108c.191-.076.42-.067.507.021.088.088-.068.15-.347.14-.308-.014-.37-.076-.16-.16zm100.558-.811c-.33-.42-.32-.43.1-.1.44.346.58.563.363.563-.055 0-.264-.209-.463-.463zm21.465-36.943c0-.055.208-.264.463-.463.42-.33.429-.32.1.1-.346.44-.563.58-.563.363zm-15.304-6.78c0-.363.06-.512.133-.33.074.182.074.48 0 .661-.073.182-.133.033-.133-.33zm-54.877-79.285c.182-.074.48-.074.661 0 .182.073.034.133-.33.133s-.513-.06-.331-.133zm5.027-.012a3.77 3.77 0 0 1 1.19 0c.328.063.06.115-.595.115-.654 0-.922-.052-.595-.115zm-8.98-19.308c.192-.077.42-.067.508.02.088.088-.068.151-.347.14-.309-.013-.371-.076-.16-.16z"/><path fill="#e46f6f" d="M98.263 248.77c.182-.074.48-.074.662 0 .181.073.033.133-.331.133s-.513-.06-.33-.134zm14.023 0c.182-.074.48-.074.661 0 .182.073.034.133-.33.133s-.513-.06-.331-.134zm-7.673-13.76c.182-.072.48-.072.662 0 .181.074.033.134-.331.134s-.513-.06-.33-.133zm-57.647-3.991c-.329-.42-.32-.43.1-.1.255.2.463.408.463.463 0 .218-.217.078-.563-.363zm102.215-17.396c.005-.437.065-.584.132-.326.067.257.062.615-.01.794-.073.179-.128-.032-.122-.468zM46.074 186.238c.263-.29.538-.529.611-.529.073 0-.083.238-.346.53-.264.29-.539.528-.612.528-.072 0 .084-.238.347-.529zm5.953.165c0-.055.209-.263.463-.463.42-.33.43-.32.1.1-.346.44-.563.58-.563.363zm101.707-7.64-.504-.595.596.504c.56.474.715.687.504.687-.05 0-.318-.268-.596-.595zm9.525-36.512-.504-.595.596.504c.327.277.595.545.595.595 0 .212-.213.056-.687-.504zM1.318 118.373c.001-1.165.047-1.608.103-.986.056.623.055 1.575-.002 2.117-.056.542-.102.033-.101-1.131zm20.303-4.785c.013-.308.075-.37.16-.16.076.191.067.42-.021.507-.088.088-.15-.068-.139-.347zm149.49-13.23c.012-.307.075-.37.16-.159.076.191.066.42-.021.507-.088.088-.15-.068-.14-.347zm1.566-38.87c-.642-.656-1.109-1.191-1.036-1.191.073 0 .658.535 1.3 1.19.643.655 1.11 1.19 1.037 1.19-.073 0-.658-.535-1.3-1.19zm-72.016-4.547c.19-.077.42-.067.507.02.088.089-.068.151-.347.14-.308-.013-.371-.076-.16-.16zm6.995-.277a11.52 11.52 0 0 1 1.984 0c.546.057.1.104-.992.104-1.091 0-1.538-.047-.992-.104zm-6.466-19.302c.191-.077.42-.067.507.02.088.088-.068.151-.347.14-.308-.013-.371-.076-.16-.16zm12.965 0c.19-.077.419-.067.507.02.088.088-.069.151-.348.14-.308-.013-.37-.076-.16-.16z"/><path fill="#dd4848" d="M113.36 248.764c.192-.077.42-.067.508.02.088.089-.068.151-.347.14-.308-.013-.371-.076-.16-.16zM91.4 235.005c.191-.076.42-.067.508.021.088.088-.069.15-.348.14-.308-.013-.37-.076-.16-.16zm12.436 0c.19-.076.42-.067.507.021.088.088-.068.15-.347.14-.308-.013-.371-.076-.16-.16zm-59.515-6.632c-.33-.42-.32-.429.1-.1.44.346.58.563.363.563-.055 0-.264-.208-.463-.463zm100.972-5.093c.263-.291.538-.53.611-.53.073 0-.083.239-.347.53-.263.29-.538.529-.61.529-.074 0 .082-.238.346-.53zm-96.475-4.167c-.329-.42-.32-.43.1-.1.255.2.463.408.463.463 0 .218-.217.077-.563-.363zM167.99 212.3c.002-.728.054-.994.115-.592.06.402.059.998-.004 1.323-.063.325-.113-.004-.111-.731zM44.883 187.46c0-.055.209-.263.463-.463.42-.329.43-.32.1.1-.345.44-.563.581-.563.363zm1.853-1.852c0-.055.208-.263.463-.463.42-.329.429-.32.1.1-.346.44-.563.58-.563.363zm109.239-4.596c-.33-.42-.32-.43.1-.1.254.2.463.408.463.463 0 .218-.218.077-.563-.363zM1.248 120.732c.013-.308.075-.371.16-.16.076.19.067.42-.021.507-.088.088-.15-.068-.139-.347zm0-4.763c.013-.308.075-.37.16-.16.076.191.067.42-.021.508-.088.087-.15-.069-.139-.348zm169.893-11.884c.005-.436.065-.583.132-.326.067.258.063.615-.01.794-.072.18-.127-.031-.122-.468zm18.816-1.852c.002-.873.051-1.198.11-.723.059.476.058 1.19-.003 1.588-.06.397-.109.008-.107-.865zm-18.846-1.08c.012-.309.075-.371.16-.16.076.19.066.419-.021.507-.088.088-.15-.068-.14-.347zM35.623 83.713c.342-.365.681-.662.754-.662.072 0-.148.297-.49.661-.341.364-.68.662-.753.662-.073 0 .147-.298.489-.662zm2.249-2.25c.263-.29.538-.529.611-.529.073 0-.083.238-.346.53-.264.29-.539.528-.612.528-.072 0 .084-.238.347-.529zm122.6-5.225c-.329-.42-.32-.43.1-.1.441.345.581.563.364.563-.055 0-.264-.209-.463-.463zm-2.38-2.382c-.33-.42-.32-.429.1-.1.44.346.58.563.362.563-.055 0-.263-.208-.463-.463zM174.23 63.01c-.33-.42-.32-.43.1-.1.44.345.58.563.363.563-.055 0-.263-.209-.463-.463zm-3.175-3.175c-.33-.42-.32-.43.1-.1.44.345.58.563.363.563-.055 0-.263-.209-.463-.463zm-70.66-22.472c.191-.077.42-.067.507.02.088.088-.068.151-.347.14-.308-.013-.37-.076-.16-.16z"/><path fill="#d41212" d="M0 0h270.933v270.933H0z" color="#000" overflow="visible"/><path fill="#d92e2e" d="M92.194 235.005c.191-.076.42-.067.507.021.088.088-.068.15-.347.14-.308-.013-.37-.076-.16-.16zm10.848 0c.191-.076.42-.067.507.021.088.088-.068.15-.347.14-.308-.013-.37-.076-.16-.16zm-53.016-14.702-.777-.86.86.778c.473.427.86.814.86.86 0 .204-.218.024-.943-.778zm117.91-6.438c.012-.308.075-.37.16-.16.076.191.066.42-.021.507-.088.088-.15-.068-.14-.347zm0-3.175c.012-.308.075-.37.16-.16.076.191.066.42-.021.507-.088.088-.15-.068-.14-.347zm-26.764-16.448-.642-.728.728.642c.4.352.728.68.728.727 0 .208-.215.039-.814-.641zm-113.52-60.854c-.33-.42-.32-.43.1-.1.44.345.58.563.363.563-.055 0-.264-.209-.463-.463zm-1.182-1.19-.504-.596.595.504c.56.473.716.686.504.686-.05 0-.318-.268-.595-.595zM1.248 115.175c.013-.309.075-.371.16-.16.076.19.067.419-.021.507-.088.088-.15-.068-.139-.347zm188.648-11.113c.013-.308.075-.37.16-.16.076.191.067.42-.021.507-.088.088-.15-.068-.139-.347zm-18.74-1.565c.003-.582.057-.79.12-.46.064.329.062.805-.004 1.058s-.118-.016-.115-.598zm18.74-2.14c.013-.307.075-.37.16-.159.076.191.067.42-.021.507-.088.088-.15-.068-.139-.347zM36.814 82.523c.263-.291.538-.53.61-.53.074 0-.082.239-.346.53-.263.29-.538.529-.611.529-.073 0 .083-.238.347-.53zm122.485-7.475-.777-.86.86.777c.473.428.86.815.86.86 0 .205-.219.025-.943-.777zM22.262 68.763c1.01-1.018 1.897-1.852 1.97-1.852.072 0-.695.834-1.706 1.852-1.01 1.019-1.897 1.852-1.97 1.852-.073 0 .695-.833 1.706-1.852zm148-9.723c-.329-.42-.32-.43.1-.1.44.346.581.563.363.563-.055 0-.263-.209-.463-.463z"/><path fill="#fdfdfd" d="M132.802 238.98c-17.78-.724-34.09-5.21-44.962-12.37-9.015-5.935-14.84-13.366-17.149-21.875-.822-3.032-.821-9.644.002-12.62 1.304-4.715 3.882-9.248 7.815-13.742 3.01-3.437 8.168-7.378 9.66-7.378.733 0 1.375.688 1.375 1.475 0 .47-.813 1.452-2.997 3.62-6.83 6.781-10.492 15.32-9.446 22.024 1.256 8.05 6.896 14.681 16.637 19.563 6.651 3.333 13.243 5.425 21.206 6.73 5.676.93 9.413 1.192 16.933 1.185 22.42-.02 40.925-4.826 47.88-12.437 2.109-2.306 3.437-5.811 3.445-9.087.008-3.345-1.318-8.736-3.05-12.397-2.124-4.488-4.514-7.299-9.149-10.76-7.334-5.475-15.996-9.038-31.85-13.1-7.924-2.03-8.31-2.113-27.384-5.948-21.245-4.271-28.852-6.13-39.026-9.538-16.981-5.689-28.064-13.999-33.485-25.108-2.941-6.026-3.809-10.38-3.8-19.06.013-11.61 1.757-19.312 6.589-29.105 3.91-7.925 7.599-12.952 14.662-19.978 7.69-7.65 15.965-13.411 26.617-18.534 16.086-7.735 33.083-11.805 52.97-12.681 28.586-1.26 53.628 7.35 70.326 24.18 5.872 5.918 10.015 12.24 13.063 19.93 6.763 17.066 4.75 36.041-5.856 55.203-2.544 4.597-3.868 6.202-5.963 7.23-1.334.656-1.8.741-4.022.738-2.081-.003-2.725-.109-3.74-.61-1.875-.927-3.217-2.22-4.216-4.063-.844-1.556-.908-1.842-.908-4.071 0-2.243.062-2.517.96-4.234 5.611-10.732 7.217-14.71 8.483-21.017.517-2.573.61-3.84.6-8.202-.008-4.623-.082-5.465-.703-8.096-1.271-5.382-3.432-10.106-6.696-14.64-1.654-2.296-6.239-6.979-8.73-8.915-9.41-7.315-21.065-11.877-35.189-13.773-4.809-.646-18.13-.638-23.944.013-19.66 2.204-36.648 8.204-50.139 17.71-4.801 3.383-9.813 7.986-13.308 12.222-4.824 5.847-8.588 13.423-10.072 20.27-.77 3.555-1.177 9.934-.842 13.197.614 5.984 1.868 8.783 5.573 12.439 4.69 4.629 12.595 8.452 24.602 11.899 8.492 2.438 12.488 3.355 29.985 6.877 19.88 4.003 27.477 5.785 37.484 8.793 12.14 3.649 21.901 8.313 29.71 14.198 11.244 8.474 17.31 19.546 18.746 34.217 1.352 13.815-5.524 25.59-18.812 32.217-7.657 3.818-15.64 5.79-27.898 6.89-2.965.265-15.547.831-16.695.75-.291-.02-2.672-.124-5.292-.231z"/></svg>